<?xml version="1.0" encoding="utf-8"?>
<!-- Generator: Adobe Illustrator 19.2.0, SVG Export Plug-In . SVG Version: 6.00 Build 0)  -->
<svg version="1.1" id="alienavatar" xmlns="http://www.w3.org/2000/svg" xmlns:xlink="http://www.w3.org/1999/xlink" x="0px"
	 y="0px" viewBox="0 0 172 224" enable-background="new 0 0 172 224" xml:space="preserve">
<g>
	<path fill="#FFFFFF" d="M116,70.1445c-10.3926,6-14.1328,20.9297-15.2852,27.2988c6.0918,2.1875,20.8926,6.418,31.2852,0.4121
		c10.3926-6,14.1328-20.9297,15.2852-27.2988C141.1934,68.3711,126.3926,64.1387,116,70.1445z"/>
	<path fill="#FFFFFF" d="M56,70.1445c-10.4336-6.0254-25.2051-1.7891-31.2852,0.4062C25.8652,76.916,29.6035,91.8535,40,97.8555
		c10.3984,6.0059,25.1934,1.7773,31.2852-0.4121C70.1328,91.0742,66.3926,76.1445,56,70.1445z"/>
	<path fill="#D8D8D8" d="M86,8C42.9902,8,8,43.3125,8,86.7168c0,38.8027,63.4941,111.3008,78,127.3555
		c14.5059-16.0547,78-88.5527,78-127.3555C164,43.3125,129.0098,8,86,8z M36,104.7852
		c-16.8906-9.752-19.5879-35.3105-19.6934-36.3945c-0.168-1.7051,0.7695-3.3262,2.3301-4.0332
		C19.6309,63.9062,43.1113,53.4688,60,63.2148c16.8906,9.752,19.5879,35.3105,19.6934,36.3945
		c0.168,1.7031-0.7695,3.3262-2.3281,4.0332c-0.6797,0.3086-11.875,5.2891-24.2891,5.2891
		C47.3379,108.9316,41.3398,107.8672,36,104.7852z M84,140h-8v-12h8V140z M96,140h-8v-12h8V140z M136,104.7852
		c-5.3379,3.082-11.3379,4.1465-17.0762,4.1465c-12.4141,0-23.6094-4.9805-24.2891-5.2891
		c-1.5586-0.707-2.4961-2.3301-2.3281-4.0332c0.1055-1.084,2.8027-26.6426,19.6934-36.3945
		c16.8926-9.75,40.3711,0.6914,41.3633,1.1426c1.5605,0.707,2.498,2.3281,2.3301,4.0332
		C155.5879,69.4746,152.8906,95.0332,136,104.7852z"/>
	<path fill="#535353" d="M86,0C38.5801,0,0,38.9004,0,86.7168c0,46.7285,79.6875,132.3926,83.0801,136.0176
		C83.8359,223.541,84.8926,224,86,224s2.1641-0.459,2.9199-1.2656C92.3125,219.1094,172,133.4453,172,86.7168
		C172,38.9004,133.4199,0,86,0z M86,214.0723C71.4941,198.0176,8,125.5195,8,86.7168C8,43.3125,42.9902,8,86,8
		s78,35.3125,78,78.7168C164,125.5195,100.5059,198.0176,86,214.0723z"/>
	<rect x="76" y="128" fill="#535353" width="8" height="12"/>
	<rect x="88" y="128" fill="#535353" width="8" height="12"/>
	<path fill="#535353" d="M153.3633,64.3574c-0.9922-0.4512-24.4707-10.8926-41.3633-1.1426
		c-16.8906,9.752-19.5879,35.3105-19.6934,36.3945c-0.168,1.7031,0.7695,3.3262,2.3281,4.0332
		c0.6797,0.3086,11.875,5.2891,24.2891,5.2891c5.7383,0,11.7383-1.0645,17.0762-4.1465
		c16.8906-9.752,19.5879-35.3105,19.6934-36.3945C155.8613,66.6855,154.9238,65.0645,153.3633,64.3574z M132,97.8555
		c-10.3926,6.0059-25.1934,1.7754-31.2852-0.4121c1.1523-6.3691,4.8926-21.2988,15.2852-27.2988
		c10.3926-6.0059,25.1934-1.7734,31.2852,0.4121C146.1328,76.9258,142.3926,91.8555,132,97.8555z"/>
	<path fill="#535353" d="M79.6934,99.6094C79.5879,98.5254,76.8906,72.9668,60,63.2148
		c-16.8887-9.7461-40.3691,0.6914-41.3633,1.1426c-1.5605,0.707-2.498,2.3281-2.3301,4.0332
		c0.1055,1.084,2.8027,26.6426,19.6934,36.3945c5.3398,3.082,11.3379,4.1465,17.0762,4.1465
		c12.4141,0,23.6094-4.9805,24.2891-5.2891C78.9238,102.9355,79.8613,101.3125,79.6934,99.6094z M40,97.8555
		c-10.3965-6.002-14.1348-20.9395-15.2852-27.3047C30.7949,68.3555,45.5664,64.1191,56,70.1445
		c10.3926,6,14.1328,20.9297,15.2852,27.2988C65.1934,99.6328,50.3984,103.8613,40,97.8555z"/>
</g>
</svg>
