<?xml version="1.0" encoding="utf-8"?>
<!-- Generator: Adobe Illustrator 19.2.0, SVG Export Plug-In . SVG Version: 6.00 Build 0)  -->
<svg version="1.1" id="alienship3" xmlns="http://www.w3.org/2000/svg" xmlns:xlink="http://www.w3.org/1999/xlink" x="0px" y="0px"
	 viewBox="0 0 232 182.1074" enable-background="new 0 0 232 182.1074" xml:space="preserve">
<g>
	<path fill="#FFFFFF" d="M132,64c0,7.9033-5.7739,14.4429-13.3164,15.7285V84h13.3555C140.8398,84,148,76.8203,148,67.9961V48h-32
		C124.8223,48,132,55.1777,132,64z"/>
	<path fill="#FFFFFF" d="M84,67.9961C84,76.8203,91.1602,84,99.9609,84h10.7227v-4.9775C104.4807,76.8184,100,70.9492,100,64
		c0-8.8223,7.1777-16,16-16H84V67.9961z"/>
	<circle fill="#D8D8D8" cx="116" cy="64" r="8"/>
	<path fill="#D8D8D8" d="M175.8828,71.2754v14.832c0,2.209-1.791,4-4,4s-4-1.791-4-4V62.5723c0-0.2061,0.0872-0.3828,0.1172-0.5801
		V44.0254C168,24.1602,151.8672,8,132.0391,8H99.9609C80.1328,8,64,24.1602,64,44.0254v22.1289c0,0.2393-0.0764,0.457-0.1172,0.6865
		v19.2666c0,2.209-1.791,4-4,4s-4-1.791-4-4V71.335C26.6287,79.2021,8,92.5566,8,106c0,20.2832,43.3965,42,108,42
		s108-21.7168,108-42C224,92.521,205.27,79.1338,175.8828,71.2754z M156,67.9961C156,81.2324,145.252,92,132.0391,92H99.9609
		C86.748,92,76,81.2324,76,67.9961V44c0-2.209,1.791-4,4-4h72c2.209,0,4,1.791,4,4V67.9961z"/>
	<path fill="#535353" d="M232,106c0-18.0781-20.8633-34.0312-56-42.9805V44.0254C176,19.75,156.2793,0,132.0391,0H99.9609
		C75.7207,0,56,19.75,56,44.0254v17.9668c-0.03,0.1973-0.1172,0.374-0.1172,0.5801v0.4795C20.8186,72.0068,0,87.9424,0,106
		c0,25.6738,42.7349,46.2412,99.8828,49.5283v22.5791c0,2.209,1.791,4,4,4s4-1.791,4-4v-22.2368
		C110.5652,155.9473,113.2649,156,116,156c4.0178,0,7.9812-0.085,11.8828-0.249v22.3564c0,2.209,1.791,4,4,4s4-1.791,4-4v-22.8228
		C191.1309,151.3281,232,131.1064,232,106z M116,148C51.3965,148,8,126.2832,8,106c0-13.4434,18.6287-26.7979,47.8828-34.665
		v14.7725c0,2.209,1.791,4,4,4s4-1.791,4-4V66.8408C63.9236,66.6113,64,66.3936,64,66.1543V44.0254C64,24.1602,80.1328,8,99.9609,8
		h32.0781C151.8672,8,168,24.1602,168,44.0254v17.9668c-0.03,0.1973-0.1172,0.374-0.1172,0.5801v23.5352c0,2.209,1.791,4,4,4
		s4-1.791,4-4v-14.832C205.27,79.1338,224,92.521,224,106C224,126.2832,180.6035,148,116,148z"/>
	<path fill="#535353" d="M152,40H80c-2.209,0-4,1.791-4,4v23.9961C76,81.2324,86.748,92,99.9609,92h32.0781
		C145.252,92,156,81.2324,156,67.9961V44C156,41.791,154.209,40,152,40z M116,72c-4.4121,0-8-3.5879-8-8s3.5879-8,8-8s8,3.5879,8,8
		S120.4121,72,116,72z M148,67.9961C148,76.8203,140.8398,84,132.0391,84h-13.3555v-4.2715C126.2261,78.4429,132,71.9033,132,64
		c0-8.8223-7.1777-16-16-16s-16,7.1777-16,16c0,6.9492,4.4807,12.8184,10.6836,15.0225V84H99.9609C91.1602,84,84,76.8203,84,67.9961
		V48h32h32V67.9961z"/>
</g>
</svg>
