<?xml version="1.0" encoding="utf-8"?>
<!-- Generator: Adobe Illustrator 19.2.0, SVG Export Plug-In . SVG Version: 6.00 Build 0)  -->
<svg version="1.1" id="satellite" xmlns="http://www.w3.org/2000/svg" xmlns:xlink="http://www.w3.org/1999/xlink" x="0px" y="0px"
	 viewBox="0 0 229.0176 229.0195" enable-background="new 0 0 229.0176 229.0195" xml:space="preserve">
<g>
	<polygon fill="#D8D8D8" points="120.3672,136.9355 92.082,108.6504 77.9395,122.793 89.2539,134.1074 94.9102,139.7637 
		106.2246,151.0781 	"/>
	
		<rect x="29.7558" y="26.1834" transform="matrix(0.7071 -0.7071 0.7071 0.7071 -18.1838 40.4662)" fill="#D8D8D8" width="20.0017" height="32.0004"/>
	
		<rect x="50.7269" y="9.2128" transform="matrix(0.7071 -0.7071 0.7071 0.7071 -1.213 47.4967)" fill="#D8D8D8" width="12.0004" height="31.9998"/>
	
		<rect x="79.0104" y="37.4963" transform="matrix(0.7071 -0.7071 0.7071 0.7071 -12.929 75.7808)" fill="#D8D8D8" width="12.0012" height="32.0017"/>
	<path fill="#D8D8D8" d="M134.5098,122.793l33.9434-33.9434c7.7969-7.7949,7.7949-20.4824-0.002-28.2812
		c-3.7754-3.7754-8.9746-5.7793-14.1484-5.8516c-5.3438,0-10.3613,2.0762-14.1328,5.8477l-33.9453,33.9453L134.5098,122.793z"/>
	
		<rect x="58.04" y="54.4675" transform="matrix(0.7071 -0.7071 0.7071 0.7071 -29.8998 68.7515)" fill="#D8D8D8" width="20.001" height="32.0011"/>
	
		<rect x="176.8345" y="173.2602" transform="matrix(0.7071 -0.7071 0.7071 0.7071 -79.105 187.5498)" fill="#D8D8D8" width="20.0009" height="32.0013"/>
	
		<rect x="148.5492" y="144.976" transform="matrix(0.7071 -0.7071 0.7071 0.7071 -67.3894 159.2608)" fill="#D8D8D8" width="20.0017" height="32.0012"/>
	
		<rect x="197.8051" y="156.2907" transform="matrix(0.7071 -0.7071 0.7071 0.7071 -62.1346 194.5748)" fill="#D8D8D8" width="12.0001" height="31.9997"/>
	
		<rect x="169.5209" y="128.0053" transform="matrix(0.7071 -0.7071 0.7071 0.7071 -50.4196 166.284)" fill="#D8D8D8" width="12.0001" height="32.0019"/>
	<path fill="#535353" d="M69.4551,97.3379c0.7812,0.7812,1.8047,1.1719,2.8281,1.1719s2.0469-0.3906,2.8281-1.1719L92.082,80.3672
		l5.6562-5.6562l11.3145-11.3145c1.5625-1.5625,1.5625-4.0938,0-5.6562l-25.457-25.457l-5.6562-5.6562L52.4844,1.1719
		c-1.5625-1.5625-4.0938-1.5625-5.6562,0L35.5146,12.4854l-0.001-0.001l-5.6562,5.6562l0.001,0.001L12.8867,35.1133
		c-1.5625,1.5625-1.5625,4.0938,0,5.6562L69.4551,97.3379z M72.2832,88.8535L49.6553,66.2256L63.7979,52.082l22.6279,22.6289
		L72.2832,88.8535z M100.5684,60.5684l-8.4863,8.4863L69.4539,46.4258l8.4858-8.4861L100.5684,60.5684z M49.6562,9.6562
		l22.6272,22.6272l-8.4856,8.4858l-22.627-22.6277L49.6562,9.6562z M35.5146,23.7979l22.627,22.6279L43.999,60.5693L21.3711,37.9414
		L35.5146,23.7979z"/>
	<path fill="#535353" d="M227.8457,176.5332l-56.5684-56.5684c-1.5625-1.5625-4.0938-1.5625-5.6562,0l-33.9414,33.9414
		c-0.75,0.75-1.1719,1.7676-1.1719,2.8281s0.4219,2.0781,1.1719,2.8281l56.5703,56.5684c0.75,0.75,1.7676,1.1719,2.8281,1.1719
		s2.0781-0.4219,2.8281-1.1719l16.9702-16.9712l0.0005,0.0005l5.6562-5.6562l-0.0007-0.0007l11.3132-11.3137
		C229.4082,180.627,229.4082,178.0957,227.8457,176.5332z M168.4492,128.4492l22.6289,22.6289l-8.4856,8.4851l-22.6287-22.6287
		L168.4492,128.4492z M154.3076,142.5908l22.6284,22.6284l-14.1436,14.1428l-22.6284-22.6277L154.3076,142.5908z M191.0781,207.6465
		l-22.6292-22.6284l14.1433-14.1426l22.6279,22.6279L191.0781,207.6465z M210.8762,187.8469l-22.6274-22.6274l8.4856-8.4851
		l22.627,22.627L210.8762,187.8469z"/>
	<path fill="#535353" d="M134.5098,134.1055l39.5996-39.5996c10.916-10.9121,10.916-28.6758-0.002-39.5938
		c-5.2812-5.2812-12.3086-8.1914-19.7891-8.1953c-0.0059,0-0.0098,0-0.0156,0c-7.4805,0-14.5078,2.9082-19.7891,8.1914
		L94.9121,94.5098L134.5098,134.1055z M140.1699,60.5645c3.7715-3.7715,8.7891-5.8477,14.1328-5.8477
		c5.1738,0.0723,10.373,2.0762,14.1484,5.8516c7.7969,7.7988,7.7988,20.4863,0.002,28.2812l-33.9434,33.9434l-28.2852-28.2832
		L140.1699,60.5645z"/>
	<path fill="#535353" d="M131.6797,136.9355L92.082,97.3379L66.627,122.793l16.9709,16.9709l-31.1331,31.1345l5.6562,5.6562
		l31.1331-31.1345l16.9705,16.9705L131.6797,136.9355z M89.2539,134.1074L77.9395,122.793l14.1426-14.1426l28.2852,28.2852
		l-14.1426,14.1426l-11.3145-11.3145L89.2539,134.1074z"/>
	<path fill="#535353" d="M27.3125,141.7051c-2.209,0-4,1.791-4,4c0,33.084,26.916,60,60,60c2.209,0,4-1.791,4-4s-1.791-4-4-4
		c-28.6738,0-52-23.3262-52-52C31.3125,143.4961,29.5215,141.7051,27.3125,141.7051z"/>
	<path fill="#535353" d="M84,221.0195c-41.9062,0-76-34.0938-76-76c0-2.209-1.791-4-4-4s-4,1.791-4,4c0,46.3184,37.6816,84,84,84
		c2.209,0,4-1.791,4-4S86.209,221.0195,84,221.0195z"/>
</g>
</svg>
